<?xml version="1.0" encoding="UTF-8"?>
<svg id="Capa_1" xmlns="http://www.w3.org/2000/svg" version="1.1" viewBox="0 0 1059.4 377.19">
  <!-- Generator: Adobe Illustrator 29.5.1, SVG Export Plug-In . SVG Version: 2.1.0 Build 141)  -->
  <defs>
    <style>
      .st0 {
        fill: #94a3b8;
        font-family: MyriadPro-Regular, 'Myriad Pro';
        font-size: 38.9px;
      }

      .st1 {
        fill: #3c3a78;
      }

      .st2 {
        fill: #e97829;
      }
    </style>
  </defs>
  <path class="st1" d="M318.5,255.58c-.55-5.57,2.39-10.54,0-15.95,25.87-11.58,54.02-20.95,75.72-39.59,1.24-43.73-1.4-87.22-.79-130.92h-19.48c-11.52,0-33.84,13.67-42.5,21.4-4.06,3.62-7.32,11.54-14.44,11.56-5.42.02-14.35-12.26-19-15.99-9.14-7.31-33.42-16.97-44.93-16.97h-16.48v107.19c0,2.52-6.89,5.8-9.49,5.49l-65.28.16-22.31,48.03c-4.02,6.93-14.04,5.07-16.6-2.04l-24.2-83.04-13.45,31.93c-4.53,9.95-16.34,4.04-24.96,6.99-9.94-1.23-31.06,3.42-27.24-13.26,2.36-10.29,28.67-3.58,36.7-6.21,1.53-1.94,2.41-4.32,3.45-6.53,6.51-13.84,11.03-32.78,18.31-45.54,4.14-7.25,14.53-5.45,16.98,2.41l24.19,83.05c2.35.51,1.6-.34,2.23-1.29,3.63-5.5,12.8-33.61,19.24-33.61h64.44V58.65c0-3.34,7.47-6.97,10.58-7.39,23.98-3.25,54.73,3.51,74.86,16.83,2.95,1.95,11.79,10.04,13.98,9.98,4.61-2.86,8.16-7.18,12.55-10.36,18.62-13.49,42.5-18.59,65.33-16.52,7.13.65,14.82,2.5,15.55,10.41,1.19,12.95-.35,28.6-.09,41.97.59,29.88,3.84,67.41,1.08,96.72-.75,7.93-5.01,11.53-11.12,15.82-15.22,10.7-38.88,21.13-56.17,28.69-5.83,2.55-21.63,10.39-26.65,10.79Z"/>
  <path class="st1" d="M511.31,109l29.47,56.82,29.97-56.82h22.48v103.7h-20.98v-64.81l-25.08,46.26c-2.33,3-9.17,1.29-12.72,1.44l-25.13-46.7v63.82h-21.98v-103.7h23.98Z"/>
  <path class="st1" d="M687.13,212.7v-103.7h46.45c3.81,0,15.68,4.5,19.4,6.56,29.38,16.25,31.1,66.84,5.55,87.15-19.69,15.65-48.12,9.65-71.41,9.99ZM708.11,194.75h23.48c.42,0,6.81-2.64,7.81-3.17,19.35-10.28,20.9-45.6,3.17-58.65-1.38-1.01-8.93-4.99-9.99-4.99h-24.48v66.81Z"/>
  <path class="st1" d="M678.14,109v18.95h-49.95v22.93h42.96v17.95h-42.96v25.93h50.95v18.95h-71.43c-.11,0-1.5-1.39-1.5-1.5v-103.2h71.93Z"/>
  <path class="st2" d="M318.5,255.58c-13.92,1.11-46.64-13.59-57.41-22.96-19.96-17.37-19.61-43.42-.54-61.3,1.89-1.77,6.57-3.75,7.48-5.5,2.21-4.26,3.72-16.24,6.34-22.59,7.44-18.05,19.32-32.87,40.99-28.59,5.65,1.11,19.84,7.56,21.68,13.26,3.71,11.5-15.63,18.23-19.04,11.03-1.13-2.38.03-7.17-.6-7.89-1.59-1.82-12.2-2.54-15.26-.96-9.73,5.01-18.33,28.42-18.68,39.16,10.81,3.64,30.17,8,41.07,4.13,2.59-.92,7.2-6.48,7.02-8.95-.04-.55-6.07-2-5.04-8.95,1.24-8.37,19-8.94,20.75-2.86,2.59,9.01-3.44,26.8-11.27,32.2-12.11,8.36-41.33,4.17-54.99.03-2.87-.87-5.8-3.69-8.73-2.89-2.05.56-6.38,6.47-7.52,8.53-16.71,30.18,32.05,46.41,53.75,49.16,2.39,5.41-.55,10.38,0,15.95Z"/>
  <path class="st2" d="M852.97,212.7l38.46-102.71c1.96-2.35,14.41-.26,18.03-1.07l40.42,103.77h-21.98l-8.88-24.34c-.99-1.45-30.64-.48-35.1-.11l-8.97,24.45h-21.98ZM887.93,171.82h25.97c-1.54-4.35-10.68-35.34-12.5-35.9s-1.47.94-1.95,2c-4.63,10.3-7.52,23.21-11.53,33.91Z"/>
  <path class="st2" d="M792.03,109l27.46,74.79,26.48-74.79h21.98l-40.42,103.77c-4.18-.88-15.06,1.67-17.44-1.65l-40.05-102.12h21.98Z"/>
  <polygon class="st2" points="973.85 109 973.85 194.75 1026.79 194.75 1026.79 212.7 952.87 212.7 952.87 109 973.85 109"/>
  <path class="st2" d="M455.37,39.2v253.77c0,2.22-11.99,2.22-11.99,0V39.2h11.99Z"/>
  <text class="st0" transform="translate(770.05 344.08)"><tspan x="0" y="0">J-50037573-5</tspan></text>
</svg>
